<svg viewBox="0 0 24 24" fill="none" xmlns="http://www.w3.org/2000/svg" id="Docker--Streamline-Unicons">
  <desc>
    Docker Streamline Icon: https://streamlinehq.com
  </desc>
  <path d="M8.2368 8.461h2.1168c0.1176 0 0.2352 -0.1176 0.2352 -0.2352v-1.764c0 -0.1176 -0.1176 -0.2352 -0.2352 -0.2352H8.2368c-0.1176 0 -0.2352 0.1176 -0.2352 0.2352v1.8816s0.1176 0.1176 0.2352 0.1176Zm2.8224 2.7048h2.1168c0.1176 0 0.2352 -0.1176 0.2352 -0.2352V9.049c0 -0.1176 -0.1176 -0.2352 -0.2352 -0.2352h-2.1168c-0.1176 0 -0.2352 0.1176 -0.2352 0.2352v1.8816c0 0.1176 0.1176 0.2352 0.2352 0.2352Zm0 -2.7048h2.1168c0.1176 0 0.2352 -0.1176 0.2352 -0.2352v-1.764l-0.2352 -0.2352h-2.1168c-0.1176 0 -0.2352 0.1176 -0.2352 0.2352v1.8816s0.1176 0.1176 0.2352 0.1176Zm2.94 2.7048h2.1168c0.1176 0 0.2352 -0.1176 0.2352 -0.2352V9.049c0 -0.1176 -0.1176 -0.2352 -0.2352 -0.2352h-2.1168c-0.1176 0 -0.2352 0.1176 -0.2352 0.2352v1.8816c0 0.1176 0.1176 0.2352 0.2352 0.2352Zm-2.94 -5.4096h2.1168c0.1176 0 0.2352 -0.1176 0.2352 -0.2352V3.757c0 -0.1176 -0.1176 -0.2352 -0.2352 -0.2352h-2.1168c-0.1176 0 -0.2352 0.1176 -0.2352 0.2352v1.8816c0 0.1176 0.1176 0.1176 0.2352 0.1176Zm-8.7024 5.4096h2.1168c0.1176 0 0.2352 -0.1176 0.2352 -0.2352V9.049c0 -0.1176 -0.1176 -0.2352 -0.2352 -0.2352H2.3568c-0.1176 0 -0.2352 0.1176 -0.2352 0.2352v1.8816l0.2352 0.2352Zm21.168 -1.176c-0.588 -0.3528 -1.2936 -0.588 -1.8816 -0.4704 -0.3528 0 -0.7056 0 -0.9408 0.1176 -0.2352 -1.0584 -0.8232 -1.9992 -1.6464 -2.4696l-0.3528 -0.2352 -0.2352 0.3528c-0.3528 0.2352 -0.588 0.7056 -0.7056 1.2936 -0.2352 0.9408 -0.1176 1.8816 0.3528 2.5872 -0.588 0.2352 -1.176 0.3528 -1.764 0.4704H0.9456c-0.3528 0 -0.7056 0.3528 -0.7056 0.7056 0 1.4112 0.2352 2.7048 0.7056 3.9984 0.4704 1.2936 1.2936 2.352 2.352 3.0576 1.6464 0.8232 3.4104 1.176 5.1744 1.0584 0.9408 0 1.8816 -0.1176 2.8224 -0.2352 1.2936 -0.2352 2.5872 -0.7056 3.7632 -1.4112 0.9408 -0.588 1.764 -1.2936 2.5872 -2.1168 1.0584 -1.2936 1.8816 -2.7048 2.4696 -4.3512h0.2352c0.9408 0 1.8816 -0.3528 2.5872 -0.9408 0.3528 -0.2352 0.588 -0.588 0.7056 -1.0584l0.1176 -0.2352 -0.2352 -0.1176Zm-18.228 1.176H7.296c0.1176 0 0.2352 -0.1176 0.2352 -0.2352V9.049c0 -0.1176 -0.1176 -0.2352 -0.2352 -0.2352H5.2968c-0.1176 0 -0.2352 0.1176 -0.2352 0.2352v1.8816c0 0.1176 0.1176 0.2352 0.2352 0.2352Zm0 -2.7048H7.296c0.1176 0 0.2352 -0.1176 0.2352 -0.2352v-1.764c0 -0.1176 -0.1176 -0.2352 -0.2352 -0.2352H5.2968c-0.1176 0 -0.2352 0.1176 -0.2352 0.2352v1.8816s0.1176 0.1176 0.2352 0.1176Zm2.94 2.7048h2.1168c0.1176 0 0.2352 -0.1176 0.2352 -0.2352V9.049c0 -0.1176 -0.1176 -0.2352 -0.2352 -0.2352H8.2368c-0.1176 0 -0.2352 0.1176 -0.2352 0.2352v1.8816c0 0.1176 0.1176 0.2352 0.2352 0.2352Z" fill="#000000" stroke-width="1"></path>
</svg>